<?xml version="1.0" encoding="utf-8"?>
<svg version="1.1" xmlns:xlink="http://www.w3.org/1999/xlink" width="37px" height="37px" xmlns="http://www.w3.org/2000/svg">
  <g transform="matrix(1 0 0 1 -31 -14 )">
    <path d="M 49.5 14  C 59.86 14  68 22.14  68 32.5  C 68 42.86  59.86 51  49.5 51  C 39.14 51  31 42.86  31 32.5  C 31 22.14  39.14 14  49.5 14  Z " fill-rule="nonzero" fill="#ffffff" stroke="none" />
    <path d="M 49.5 14.5  C 59.58 14.5  67.5 22.42  67.5 32.5  C 67.5 42.58  59.58 50.5  49.5 50.5  C 39.42 50.5  31.5 42.58  31.5 32.5  C 31.5 22.42  39.42 14.5  49.5 14.5  Z " stroke-width="1" stroke="#797979" fill="none" />
  </g>
</svg>