<?xml version="1.0" encoding="utf-8"?>
<svg version="1.1" xmlns:xlink="http://www.w3.org/1999/xlink" width="18px" height="18px" viewBox="346 260  18 18" xmlns="http://www.w3.org/2000/svg">
  <path d="M 355 260  C 360.04 260  364 263.96  364 269  C 364 274.04  360.04 278  355 278  C 349.96 278  346 274.04  346 269  C 346 263.96  349.96 260  355 260  Z " fill-rule="nonzero" fill="#ffffff" stroke="none" />
  <path d="M 355 260.5  C 359.76 260.5  363.5 264.24  363.5 269  C 363.5 273.76  359.76 277.5  355 277.5  C 350.24 277.5  346.5 273.76  346.5 269  C 346.5 264.24  350.24 260.5  355 260.5  Z " stroke-width="1" stroke="#797979" fill="none" />
  <path d="M 355 273.5  C 352.48 273.5  350.5 271.52  350.5 269  C 350.5 266.48  352.48 264.5  355 264.5  C 357.52 264.5  359.5 266.48  359.5 269  C 359.5 271.52  357.52 273.5  355 273.5  " fill-rule="nonzero" fill="#797979" stroke="none" />
</svg>