<?xml version="1.0" encoding="utf-8"?>
<svg version="1.1" xmlns:xlink="http://www.w3.org/1999/xlink" width="16px" height="16px" viewBox="189 298  16 16" xmlns="http://www.w3.org/2000/svg">
  <path d="M 197 298  C 201.48 298  205 301.52  205 306  C 205 310.48  201.48 314  197 314  C 192.52 314  189 310.48  189 306  C 189 301.52  192.52 298  197 298  Z " fill-rule="nonzero" fill="#ffffff" stroke="none" />
  <path d="M 197 298.5  C 201.2 298.5  204.5 301.8  204.5 306  C 204.5 310.2  201.2 313.5  197 313.5  C 192.8 313.5  189.5 310.2  189.5 306  C 189.5 301.8  192.8 298.5  197 298.5  Z " stroke-width="1" stroke="#797979" fill="none" />
  <path d="M 197 310  C 194.76 310  193 308.24  193 306  C 193 303.76  194.76 302  197 302  C 199.24 302  201 303.76  201 306  C 201 308.24  199.24 310  197 310  " fill-rule="nonzero" fill="#797979" stroke="none" />
</svg>