<?xml version="1.0" encoding="utf-8"?>
<svg version="1.1" xmlns:xlink="http://www.w3.org/1999/xlink" width="18px" height="18px" viewBox="280 355  18 18" xmlns="http://www.w3.org/2000/svg">
  <path d="M 289 355  C 294.04 355  298 358.96  298 364  C 298 369.04  294.04 373  289 373  C 283.96 373  280 369.04  280 364  C 280 358.96  283.96 355  289 355  Z " fill-rule="nonzero" fill="#ffffff" stroke="none" />
  <path d="M 289 355.5  C 293.76 355.5  297.5 359.24  297.5 364  C 297.5 368.76  293.76 372.5  289 372.5  C 284.24 372.5  280.5 368.76  280.5 364  C 280.5 359.24  284.24 355.5  289 355.5  Z " stroke-width="1" stroke="#797979" fill="none" />
  <path d="M 289 368.5  C 286.48 368.5  284.5 366.52  284.5 364  C 284.5 361.48  286.48 359.5  289 359.5  C 291.52 359.5  293.5 361.48  293.5 364  C 293.5 366.52  291.52 368.5  289 368.5  " fill-rule="nonzero" fill="#797979" stroke="none" />
</svg>