<?xml version="1.0" encoding="utf-8"?>
<svg version="1.1" xmlns:xlink="http://www.w3.org/1999/xlink" width="18px" height="18px" viewBox="280 409  18 18" xmlns="http://www.w3.org/2000/svg">
  <path d="M 289 409  C 294.04 409  298 412.96  298 418  C 298 423.04  294.04 427  289 427  C 283.96 427  280 423.04  280 418  C 280 412.96  283.96 409  289 409  Z " fill-rule="nonzero" fill="#ffffff" stroke="none" />
  <path d="M 289 409.5  C 293.76 409.5  297.5 413.24  297.5 418  C 297.5 422.76  293.76 426.5  289 426.5  C 284.24 426.5  280.5 422.76  280.5 418  C 280.5 413.24  284.24 409.5  289 409.5  Z " stroke-width="1" stroke="#797979" fill="none" />
  <path d="M 289 422.5  C 286.48 422.5  284.5 420.52  284.5 418  C 284.5 415.48  286.48 413.5  289 413.5  C 291.52 413.5  293.5 415.48  293.5 418  C 293.5 420.52  291.52 422.5  289 422.5  " fill-rule="nonzero" fill="#797979" stroke="none" />
</svg>