<?xml version="1.0" encoding="utf-8"?>
<svg version="1.1" xmlns:xlink="http://www.w3.org/1999/xlink" width="12px" height="12px" viewBox="975 74  12 12" xmlns="http://www.w3.org/2000/svg">
  <path d="M 981 74  C 984.36 74  987 76.64  987 80  C 987 83.36  984.36 86  981 86  C 977.64 86  975 83.36  975 80  C 975 76.64  977.64 74  981 74  Z " fill-rule="nonzero" fill="#ffffff" stroke="none" />
  <path d="M 981 74.5  C 984.08 74.5  986.5 76.92  986.5 80  C 986.5 83.08  984.08 85.5  981 85.5  C 977.92 85.5  975.5 83.08  975.5 80  C 975.5 76.92  977.92 74.5  981 74.5  Z " stroke-width="1" stroke="#797979" fill="none" />
  <path d="M 981 83  C 979.32 83  978 81.68  978 80  C 978 78.32  979.32 77  981 77  C 982.68 77  984 78.32  984 80  C 984 81.68  982.68 83  981 83  " fill-rule="nonzero" fill="#797979" stroke="none" />
</svg>